<!DOCTYPE svg PUBLIC "-//W3C//DTD SVG 1.1//EN" "http://www.w3.org/Graphics/SVG/1.1/DTD/svg11.dtd"><svg xmlns="http://www.w3.org/2000/svg" xmlns:xlink="http://www.w3.org/1999/xlink" width="200" height="200" viewBox="-38.029170500999918 6.6140248042161289 0.40646449899988113 0.40490941001305458" >    <title>Título</title>    <path d="M -37.784826812999903 6.642968597217042 L -37.717516077999996 6.684503737218378 -37.67877858100001 6.708964787219202 -37.658606595000037 6.721697387219678 -37.657348907999982 6.722665787219597 -37.657121355999983 6.722782839219605 -37.656383386999941 6.723163524219658 -37.655350873999957 6.72355881521959 -37.652518921000031 6.724643009219768 -37.650584707999954 6.725703536219768 -37.64887667499994 6.726976527219755 -37.647507618999995 6.729050836219791 -37.646474632000057 6.732457679219856 -37.645559659000021 6.734799581220003 -37.645427406000003 6.741351050220281 -37.644170989999964 6.744011474220315 -37.642232718999999 6.745709017220349 -37.640754314999974 6.746772660220429 -37.63767568399998 6.750331582220554 -37.635170742999932 6.752028967220483 -37.633801199999944 6.754262937220581 -37.631979659000045 6.755589276220725 -37.63095342400004 6.757079531220661 -37.630722744999964 6.758569392220828 -37.630033745999974 6.76069744522087 -37.630366918000007 6.763574150220947 -37.631384878999945 6.765230467221031 -37.632630399999975 6.766404615221013 -37.633307316000028 6.767898628221083 -37.632509015000053 6.769494475221144 -37.631028691999965 6.770450000221153 -37.62829863799994 6.771346788221194 -37.626815434999969 6.773900331221178 -37.62521683399995 6.777614360221435 -37.623162942000008 6.778951150221374 -37.622706002000037 6.780121453221483 -37.623035089999995 6.78438482222154 -37.623939252000021 6.785664498221728 -37.624616678999942 6.787530695221683 -37.626091153999994 6.788495015221798 -37.627907964000038 6.789245253221793 -37.631193172999986 6.793089995221848 -37.632884680999965 6.796770024222049 -37.632994849000021 6.79826225422206 -37.632422556000009 6.799857518222154 -37.63230425199999 6.801776218222102 -37.631040491999961 6.806620163222327 -37.70168019399997 6.80154178822216 -37.70357855000001 6.80140407122213 -37.730371729999995 6.799475048222128 -37.731739876999953 6.799304391222044 -37.732982364999998 6.798840846222056 -37.733479497000005 6.798494142222062 -37.73816191800001 6.802423686222205 -37.75157589400002 6.813679308222604 -37.751137874000015 6.839707630223337 -37.75121955500002 6.839727683223401 -37.784286078000015 6.848001943223586 -37.784325326999976 6.849376339223703 -37.785203535999983 6.880058437224648 -37.785741803000022 6.879835812224705 -37.787796619999867 6.878984736224631 -37.789680533999956 6.878673679224647 -37.791405239000014 6.87898309822458 -37.794292247999969 6.879815960224747 -37.795629107000003 6.879668062224681 -37.796458754999989 6.879240831224593 -37.797963318000043 6.877889637224612 -37.799017839999991 6.876462854224513 -37.800708478999987 6.874679944224518 -37.801293498999897 6.874544079224556 -37.801682609999936 6.874548908224512 -37.80415386799995 6.876403762224506 -37.805023470999963 6.876883725224609 -37.809303116000031 6.876120514224517 -37.811844481999984 6.876479937224502 -37.820568794000017 6.875309370224549 -37.824818050999973 6.872603233224467 -37.827311337000033 6.871843476224484 -37.828563245999966 6.871742269224463 -37.831314136000024 6.871776770224386 -37.833449973999997 6.871221195224337 -37.834260324999988 6.870643464224315 -37.836797009999998 6.869388024224357 -37.840164495000003 6.86871393422436 -37.840984933999941 6.868549932224383 -37.843376146999994 6.869715507224363 -37.844705693000044 6.87110952022433 -37.845240853 6.871837143224404 -37.849905916999987 6.881339597224695 -37.851140040999873 6.884308726224781 -37.854348160000015 6.889847228225001 -37.854985249000059 6.891783826225009 -37.855375107999983 6.894608102225099 -37.856044598000047 6.897538982225221 -37.856991544999971 6.899441313225324 -37.857983505999975 6.900595646225355 -37.859211765999994 6.901463459225305 -37.861128585999964 6.902317137225417 -37.862845570999923 6.902695120225424 -37.866740528999962 6.902378823225369 -37.869374573999941 6.902394037225385 -37.871183546999958 6.902652255225434 -37.872652065999965 6.903667205225474 -37.87429045599999 6.906853603225507 -37.875677943000035 6.910120672225645 -37.876100137999977 6.911283549225672 -37.876423077999959 6.912800994225727 -37.876876815999935 6.914930354225781 -37.877211815000031 6.918337314225859 -37.877009999999942 6.919452882225968 -37.876735508999964 6.923667871226016 -37.876761768000009 6.925304504226077 -37.876953410999967 6.925754743226115 -37.88101538899997 6.928472037226236 -37.883287207000002 6.929506444226291 -37.886707581999943 6.930786426226327 -37.888211060999993 6.931109741226251 -37.889627414000032 6.931776716226281 -37.890210067999924 6.932464365226338 -37.890568757000025 6.934096288226449 -37.889765193999978 6.937691798226489 -37.888316534000019 6.940778657226637 -37.888325108000018 6.941596438226711 -37.889544826999952 6.944005246226709 -37.890265714000002 6.944908140226715 -37.892041139999996 6.946649110226794 -37.89370847999993 6.947155496226856 -37.895252406999951 6.947980855226845 -37.899184666999972 6.95008321922689 -37.905672492999962 6.95244232722704 -37.90575715599995 6.952473112227011 -37.90670930299995 6.952950914227024 -37.90662859299993 6.953654399227055 -37.905879696999961 6.95487497622706 -37.905485842999973 6.956299583227157 -37.90540603200003 6.957287806227214 -37.90573711499998 6.957918567227175 -37.906708914000006 6.958611225227202 -37.908269848000018 6.959054129227255 -37.908789463000019 6.959420285227175 -37.908901474999965 6.960101352227305 -37.907824414999929 6.962470941227252 -37.907819343999954 6.963366717227295 -37.908126659999979 6.963900069227371 -37.908934169000005 6.964422815227373 -37.913560707999999 6.965574793227475 -37.915178747000027 6.966534206227451 -37.916988372000013 6.968099837227499 -37.917043211000021 6.9691465092275 -37.917290755999986 6.970094138227573 -37.918708773999981 6.970455806227562 -37.919486596999946 6.97151660122767 -37.919351974000001 6.971999804227593 -37.917510886999992 6.973661776227615 -37.916955404000035 6.974759843227702 -37.916656219999972 6.975830609227742 -37.916766390000028 6.978889616227804 -37.916544266999949 6.979491840227894 -37.914932267999973 6.980065868227875 -37.914675597999967 6.981111020227928 -37.913704740000014 6.982768350228014 -37.912571375000034 6.983559189227989 -37.912094765999946 6.984239239228032 -37.910486926000047 6.984951785228013 -37.910016635000041 6.985425673228058 -37.909732529999978 6.986296623228085 -37.907090090000011 6.989266807228169 -37.905846617999977 6.990406584228154 -37.904939641999988 6.990215683228165 -37.90395447800001 6.989646948228184 -37.902213607000029 6.989143917228219 -37.900393608999991 6.989140661228213 -37.898721572999932 6.990982844228313 -37.89757888299998 6.993324757228287 -37.895452535999993 6.995414856228379 -37.894162262999991 6.995694511228336 -37.893247683999995 6.997470105228437 -37.892184533999959 6.998603481228422 -37.891348674999989 6.999170586228537 -37.88967796500004 7.000764504228521 -37.889824655000012 7.002256372228594 -37.889139605999908 7.003888849228659 -37.888076835999989 7.004881137228693 -37.886560476999939 7.005587688228715 -37.885420428999936 7.005868723228694 -37.885247317000001 7.006001439228662 -37.883977189999982 7.006966824228691 -37.88261119000002 7.007389258228741 -37.879026101999955 7.007952594228811 -37.877918584999975 7.00836351022879 -37.877139452999991 7.009502620228808 -37.876555899000024 7.010744815228911 -37.875722447999991 7.011780256228875 -37.873544950999943 7.013538243228936 -37.871802275999997 7.014445225229018 -37.871243540999949 7.01490643222899 -37.871040959999974 7.01536025922897 -37.871026290000003 7.017133969229001 -37.870576888000038 7.018934214229184 -37.871538886999964 7.018926861229105 -37.891362692999991 7.010531983228887 -37.891963517999969 7.010277549228889 -37.929635409999982 6.994316167228334 -37.948708349999968 6.982092921227903 -37.978068396999973 6.963268994227384 -38.000547591999975 6.948850592226869 -38.006418631999999 6.944301009226756 -38.014642292999994 6.884665489224723 -37.997508997000004 6.872893974224454 -37.944446795999973 6.871232552224477 -37.943382191999994 6.870680075224328 -37.942747241999946 6.869480517224375 -37.942429843999975 6.867681641224216 -37.942753488999934 6.865984423224205 -37.942754736000033 6.865185061224146 -37.942012033999958 6.863985534224106 -37.940203682999993 6.862632373224059 -37.938712797000001 6.862129771224041 -37.937433588000033 6.862526549224093 -37.9347708949999 6.861719717224126 -37.933541240000032 6.860807569224065 -37.931260194999943 6.859117041223989 -37.929454074999988 6.857015175223893 -37.928412696999978 6.855366382223899 -37.928285627000029 6.855165499223887 -37.925734938999931 6.854261347223861 -37.924138069000051 6.851259868223671 -37.92296870000002 6.850358448223695 -37.921905717000001 6.849206212223749 -37.921696128999976 6.848008319223666 -37.92063758599997 6.844908453223511 -37.919894157000009 6.843808329223528 -37.917873297999954 6.842106378223392 -37.915850148999979 6.841551951223437 -37.913397252999978 6.842545707223415 -37.911374366000025 6.842141905223492 -37.908071381999939 6.841135320223515 -37.906474505999974 6.84103167922347 -37.904343132000015 6.841177246223431 -37.900935633999985 6.840367543223408 -37.895075052000024 6.840556664223335 -37.890713495999925 6.8410621462235 -37.889959550999983 6.840795830223406 -37.886660416000034 6.838889172223389 -37.882942100000044 6.834036130223211 -37.879972971999962 6.829639137223026 -37.877843067000036 6.827082582222971 -37.876356720999979 6.825580964222894 -37.874866973999993 6.824679045222872 -37.873804061999891 6.823578459222851 -37.877003900999881 6.82273511822288 -37.876792823000002 6.821237108222839 -37.874883333000014 6.817637028222684 -37.874354058000009 6.816336868222663 -37.875318644999972 6.813892092222531 -37.876280727999998 6.812496200222498 -37.877561493000009 6.811599764222493 -37.880867318999975 6.810010073222408 -37.883215638000031 6.80981556222239 -37.888539489999992 6.809877551222371 -37.892486643999995 6.80769012422239 -37.891958307999978 6.805539369222338 -37.89196329399995 6.803488421222198 -37.891963573999973 6.803242053222242 -37.892822656 6.800247755222117 -37.891653569999988 6.798648479222038 -37.891023028999953 6.795300918221905 -37.890493961999965 6.793300800221886 -37.891672980999999 6.790607501221793 -37.893484995999998 6.789813144221796 -37.895618413999948 6.789466955221748 -37.89678882099998 6.789570540221796 -37.897429684999977 6.78877352722175 -37.896281089999981 6.784421236221618 -37.895851143000023 6.780677852221508 -37.896705667999939 6.77953243522142 -37.899266161999961 6.777540371221349 -37.899801809999964 6.776641577221326 -37.900017012000006 6.775743874221298 -37.896727213999945 6.770392680221121 -37.896197581999999 6.768694670221045 -37.897051752999971 6.767796447221066 -37.897800858000046 6.766101748221004 -37.89770340699998 6.762205308220928 -37.898345618 6.760858037220835 -37.899839763999992 6.760061979220779 -37.901649953000025 6.760166604220821 -37.903144346000033 6.759869394220836 -37.906769509999869 6.757431158220712 -37.90677239799993 6.756332505220669 -37.903158842999993 6.753228745220632 -37.90252408299996 6.750729913220468 -37.901035851999929 6.749725812220525 -37.899117783999941 6.749173836220415 -37.896458465000002 6.747768630220413 -37.895289583000007 6.746368143220352 -37.894443317999979 6.744367638220389 -37.895720729999979 6.744221907220322 -37.896042827999985 6.743022887220235 -37.896260469999959 6.740926449220147 -37.897117451999989 6.739031381220201 -37.897227240000014 6.737633208220068 -37.897806219999957 6.734538326219969 -37.902041032999961 6.733995274219979 -37.906098539999952 6.734118672219971 -37.911044237999974 6.734846557219981 -37.914098285999984 6.735820961220043 -37.917510579999963 6.736157202220063 -37.927375810999983 6.737130572220046 -37.94048279399999 6.740490483220221 -37.951160128999966 6.744058307220286 -37.981677662999999 6.748834051220456 -37.986242985999993 6.749548893220542 -37.987093854999962 6.749759570220562 -37.988405295000021 6.750483001220559 -37.990349582999954 6.75197809822054 -38.00060298999994 6.756857671220686 -38.001350440999964 6.756995414220718 -38.004042071000008 6.758256426220783 -38.009961085999919 6.761692630220878 -38.014533352999955 6.762956576220915 -38.022747110000019 6.763590904220997 -38.024856258 6.764090532220948 -38.024867420999946 6.763974155221 -38.029170500999918 6.717579097219456 -37.986179459999974 6.711927080219255 -37.983176347000011 6.69689354121882 -37.998175999999944 6.677143257218127 -37.999312680999935 6.676921853218104 -38.000640855999961 6.676276159218148 -38.003045813999911 6.675875759218144 -38.008512847999995 6.676156336218178 -38.010300698000037 6.675890780218147 -38.011911730999934 6.675391477218135 -38.013218928000001 6.668684323217846 -38.017475595999947 6.646841193217185 -37.966504442999998 6.614024804216129 -37.965581463000014 6.620452574216387 -37.964553184999936 6.622897294216429 -37.962274121000014 6.626143452216518 -37.960565677000055 6.627950402216634 -37.959544206000004 6.627949105216615 -37.958182722999972 6.626987170216516 -37.95614107599998 6.625117609216552 -37.954438301000046 6.623943059216444 -37.953420338999926 6.622662683216376 -37.952283934999961 6.622553328216476 -37.950692049999965 6.62308289321642 -37.948189216999999 6.624834537216579 -37.944436704999937 6.626317349216521 -37.940574238000011 6.62615095421652 -37.926719671999962 6.62313872621651 -37.925923553999993 6.622836182216432 -37.913323369999993 6.618046923216298 -37.91139564800001 6.617137151216248 -37.909123537999953 6.616598861216211 -37.906851678000002 6.616488919216174 -37.906379955000055 6.616744111216235 -37.90185528099996 6.619190518216236 -37.899910683000002 6.621428223216377 -37.897859159999989 6.624512222216467 -37.895807176999938 6.62717304921653 -37.892163020999952 6.631479914216726 -37.891139118999966 6.631904085216739 -37.888866277000027 6.631685934216719 -37.88648199799993 6.631146553216674 -37.883758023999967 6.630022015216625 -37.883305891999861 6.628955434216657 -37.883424250999973 6.627250316216532 -37.882855759000009 6.626824285216543 -37.880470665000018 6.626499933216529 -37.878994180999975 6.626495584216521 -37.877516931999963 6.62675844721651 -37.876150635999977 6.62803540121665 -37.874443212000017 6.629095366216603 -37.872508352999972 6.631222356216732 -37.869434720000037 6.633878591216771 -37.862149302000041 6.639776608216991 -37.84529983999991 6.640473807217035 -37.811288225999881 6.64187727921707 Z" fill="blue" stroke="red" stroke-width="0.005"/></svg>